<svg xmlns="http://www.w3.org/2000/svg" width="1114.39" height="327" viewBox="0 0 1114.39 327"><defs><style>.cls-1,.cls-4{fill:#b57912;}.cls-2{fill:#fff;}.cls-3{stroke:#b57912;stroke-width:12px;}.cls-3,.cls-4{stroke-miterlimit:10;}.cls-4{stroke:#fff;stroke-width:7px;}</style></defs><g id="Layer_3" data-name="Layer 3"><path class="cls-1" d="M138.73,178.24c1.72-2.91,3.67-6.2,3.67-10.17s-2-7.25-3.67-10.16a19.23,19.23,0,0,1-2.3-4.72,20.05,20.05,0,0,1,0-5.49c.28-3.31.6-7.07-1.07-10.53s-4.86-5.62-7.65-7.47a19.54,19.54,0,0,1-4.21-3.33,19.67,19.67,0,0,1-2.33-4.88c-1.19-3.12-2.54-6.66-5.57-9.08s-6.76-2.94-10.06-3.41a19.48,19.48,0,0,1-5.31-1.21,19,19,0,0,1-4.14-3.33c-2.44-2.32-5.21-4.94-9-5.82s-7.27.3-10.42,1.3a19.66,19.66,0,0,1-5.42,1.24,19.74,19.74,0,0,1-5.42-1.24c-3.15-1-6.72-2.14-10.42-1.3s-6.61,3.5-9,5.82a19,19,0,0,1-4.14,3.33,19.49,19.49,0,0,1-5.3,1.21c-3.31.47-7,1-10.07,3.41s-4.37,6-5.56,9.08a19.07,19.07,0,0,1-2.34,4.87,19.25,19.25,0,0,1-4.21,3.34c-2.79,1.85-6,4-7.65,7.47S5.69,144.39,6,147.7a20.06,20.06,0,0,1,0,5.49,19.23,19.23,0,0,1-2.3,4.72C2,160.82,0,164.11,0,168.07s2,7.26,3.67,10.17A19.23,19.23,0,0,1,6,183a20.05,20.05,0,0,1,0,5.49c-.28,3.31-.6,7.07,1.07,10.53s4.86,5.62,7.65,7.47a19.54,19.54,0,0,1,4.21,3.33,19.32,19.32,0,0,1,2.34,4.88c1.19,3.12,2.53,6.66,5.56,9.08s6.76,2.94,10.07,3.41a19.49,19.49,0,0,1,5.3,1.21,19.18,19.18,0,0,1,4.14,3.32c2.44,2.32,5.21,4.95,9,5.82s7.27-.29,10.42-1.3A20.06,20.06,0,0,1,71.2,235a20,20,0,0,1,5.42,1.23,25.63,25.63,0,0,0,7.73,1.6,11.8,11.8,0,0,0,2.69-.3c3.84-.87,6.61-3.5,9-5.82a19.18,19.18,0,0,1,4.14-3.32,19.48,19.48,0,0,1,5.31-1.21c3.3-.47,7-1,10.06-3.41s4.37-6,5.57-9.08a19.33,19.33,0,0,1,2.33-4.88,19.54,19.54,0,0,1,4.21-3.33c2.79-1.86,6-4,7.65-7.47s1.35-7.22,1.07-10.53a20.05,20.05,0,0,1,0-5.49A19.23,19.23,0,0,1,138.73,178.24ZM71.2,222.31a54.24,54.24,0,1,1,54.24-54.24A54.3,54.3,0,0,1,71.2,222.31Z"/><path class="cls-1" d="M183.4,217.4h72.8v18.4H162v-132h21.4Z"/><path class="cls-2" d="M282,103.8v132h-5.6v-132Zm84.4,0-53.6,54.8-.8.8-33,33.4V185l79.8-81.2ZM313,154.6l55.2,81.2h-7l-52.4-77.2Z"/><path class="cls-2" d="M397.2,230.8H479v5H391.6v-132h5.6Z"/><path class="cls-2" d="M591.6,103.8v84.6q0,24-13.2,36.7t-37,12.7q-23.61,0-36.9-12.7t-13.3-36.7V103.8h5.6v83.8q0,21.79,11.7,33.5t32.9,11.7q21.39,0,33-11.7T586,187.6V103.8Z"/><path class="cls-2" d="M628.8,235.8v-132h46.4q20.59,0,31,8.7t10.4,25.3q0,12.19-6.4,20.3T691,169v.2q13.59,2,21.4,10.3t7.8,21.9q0,16.6-11.4,25.5t-33.6,8.9Zm5.6-69.2h40.8q35.59,0,35.6-28.6,0-29.2-35.6-29.2H634.4Zm0,64.2H676q19,0,28.7-7.6t9.7-22q0-14.59-9.7-22T676,171.8H634.4Z"/><path class="cls-2" d="M752.19,235.8v-132h46.4q20.61,0,31,8.7T840,137.8q0,12.19-6.4,20.3T814.4,169v.2q13.59,2,21.39,10.3t7.8,21.9q0,16.6-11.4,25.5t-33.6,8.9Zm5.6-69.2h40.8q35.61,0,35.6-28.6,0-29.2-35.6-29.2h-40.8Zm0,64.2H799.4q19,0,28.69-7.6t9.7-22q0-14.59-9.7-22t-28.69-7.4H757.79Z"/><path class="cls-2" d="M875.59,235.8v-132H964v5h-82.8V166h66v5h-66v59.8h86v5Z"/><path class="cls-2" d="M1094.19,103.8v132h-7.4L1006.19,121l-6.8-11h-.2l.4,13V235.8h-5.4v-132h7.2L1082,218.6l7,11.2-.2-13.2V103.8Z"/><line class="cls-3" x1="129.15" y1="103.8" x2="12.73" y2="237.8"/></g><g id="Layer_4" data-name="Layer 4"><line class="cls-4" y1="64.88" x2="1094.19" y2="64.88"/><line class="cls-4" y1="271.27" x2="1094.19" y2="271.27"/></g></svg>